<svg xmlns="http://www.w3.org/2000/svg" width="521" height="227" fill="none" viewBox="0 0 521 227"><rect width="24" height="24" fill="#00D53B" fill-opacity=".4" rx="4"/><rect width="24" height="24" y="29" fill="#00D53B" rx="4"/><rect width="24" height="24" y="58" fill="#00D53B" rx="4"/><rect width="24" height="24" y="87" fill="#00D53B" rx="4"/><rect width="24" height="24" y="116" fill="#00D53B" rx="4"/><rect width="24" height="24" x="33" fill="#00D53B" rx="4"/><rect width="24" height="24" x="33" y="29" fill="#00D53B" fill-opacity=".07" rx="4"/><rect width="24" height="24" x="33" y="58" fill="#00D53B" rx="4"/><rect width="24" height="24" x="33" y="87" fill="#089B31" rx="4"/><rect width="24" height="24" x="33" y="116" fill="#92F3AD" rx="4"/><rect width="24" height="24" x="66" fill="#00D53B" fill-opacity=".54" rx="4"/><rect width="24" height="24" x="66" y="29" fill="#00D53B" rx="4"/><rect width="24" height="24" x="66" y="58" fill="#00D53B" rx="4"/><rect width="24" height="24" x="66" y="87" fill="#99FFB6" rx="4"/><rect width="24" height="24" x="66" y="116" fill="#00D53B" rx="4"/><rect width="24" height="24" x="99" fill="#00D53B" rx="4"/><rect width="24" height="24" x="99" y="29" fill="#00D53B" rx="4"/><rect width="24" height="24" x="99" y="58" fill="#00D53B" rx="4"/><rect width="24" height="24" x="99" y="87" fill="#00D53B" rx="4"/><rect width="24" height="24" x="99" y="116" fill="#00D53B" rx="4"/><rect width="24" height="24" x="132" fill="#00D53B" rx="4"/><rect width="24" height="24" x="132" y="29" fill="#E3E3E3" rx="4"/><rect width="24" height="24" x="132" y="58" fill="#027C24" rx="4"/><rect width="24" height="24" x="132" y="87" fill="#8CFFAC" rx="4"/><rect width="24" height="24" x="132" y="116" fill="#00D53B" rx="4"/><rect width="24" height="24" x="165" fill="#00D53B" rx="4"/><rect width="24" height="24" x="165" y="29" fill="#53FF83" rx="4"/><rect width="24" height="24" x="165" y="58" fill="#00D53B" rx="4"/><rect width="24" height="24" x="165" y="87" fill="#00D53B" rx="4"/><rect width="24" height="24" x="165" y="116" fill="#6AE28B" rx="4"/><rect width="24" height="24" x="198" fill="#00A62E" rx="4"/><rect width="24" height="24" x="198" y="29" fill="#00D53B" rx="4"/><rect width="24" height="24" x="198" y="58" fill="#00D53B" rx="4"/><rect width="24" height="24" x="198" y="87" fill="#00D53B" rx="4"/><rect width="24" height="24" x="198" y="116" fill="#00D53B" rx="4"/><rect width="24" height="24" x="231" fill="#094B1B" rx="4"/><rect width="24" height="24" x="231" y="29" fill="#00D53B" rx="4"/><rect width="24" height="24" x="231" y="58" fill="#00D53B" rx="4"/><rect width="24" height="24" x="231" y="87" fill="#00D53B" rx="4"/><rect width="24" height="24" x="231" y="116" fill="#00D53B" rx="4"/><rect width="24" height="24" x="66" y="145" fill="#00D53B" rx="4"/><rect width="24" height="24" x="66" y="174" fill="#00D53B" fill-opacity=".4" rx="4"/><rect width="24" height="24" x="66" y="203" fill="#00D53B" rx="4"/><rect width="24" height="24" x="99" y="145" fill="#00D53B" rx="4"/><rect width="24" height="24" x="99" y="174" fill="#00D53B" rx="4"/><rect width="24" height="24" x="99" y="203" fill="#00D53B" fill-opacity=".07" rx="4"/><rect width="24" height="24" x="132" y="145" fill="#00D53B" rx="4"/><rect width="24" height="24" x="132" y="174" fill="#00D53B" fill-opacity=".54" rx="4"/><rect width="24" height="24" x="132" y="203" fill="#00D53B" rx="4"/><rect width="24" height="24" x="165" y="145" fill="#00D53B" fill-opacity=".23" rx="4"/><rect width="24" height="24" x="165" y="174" fill="#00D53B" rx="4"/><rect width="24" height="24" x="165" y="203" fill="#00D53B" rx="4"/><rect width="24" height="24" x="198" y="145" fill="#00D53B" rx="4"/><rect width="24" height="24" x="198" y="174" fill="#00D53B" rx="4"/><rect width="24" height="24" x="198" y="203" fill="#E3E3E3" rx="4"/><rect width="24" height="24" x="231" y="145" fill="#8AFFAB" rx="4"/><rect width="24" height="24" x="231" y="174" fill="#00D53B" rx="4"/><rect width="24" height="24" x="231" y="203" fill="#53FF83" rx="4"/><rect width="24" height="24" x="266" fill="#00D53B" fill-opacity=".4" rx="4"/><rect width="24" height="24" x="266" y="29" fill="#00D53B" rx="4"/><rect width="24" height="24" x="266" y="58" fill="#00D53B" rx="4"/><rect width="24" height="24" x="266" y="87" fill="#00D53B" rx="4"/><rect width="24" height="24" x="266" y="116" fill="#00D53B" rx="4"/><rect width="24" height="24" x="299" fill="#00D53B" rx="4"/><rect width="24" height="24" x="299" y="29" fill="#00D53B" fill-opacity=".07" rx="4"/><rect width="24" height="24" x="299" y="58" fill="#00D53B" rx="4"/><rect width="24" height="24" x="299" y="87" fill="#089B31" rx="4"/><rect width="24" height="24" x="299" y="116" fill="#92F3AD" rx="4"/><rect width="24" height="24" x="332" fill="#00D53B" fill-opacity=".54" rx="4"/><rect width="24" height="24" x="332" y="29" fill="#00D53B" rx="4"/><rect width="24" height="24" x="332" y="58" fill="#00D53B" rx="4"/><rect width="24" height="24" x="332" y="87" fill="#99FFB6" rx="4"/><rect width="24" height="24" x="332" y="116" fill="#00D53B" rx="4"/><rect width="24" height="24" x="365" fill="#00D53B" rx="4"/><rect width="24" height="24" x="365" y="29" fill="#00D53B" rx="4"/><rect width="24" height="24" x="365" y="58" fill="#00D53B" rx="4"/><rect width="24" height="24" x="365" y="87" fill="#00D53B" rx="4"/><rect width="24" height="24" x="365" y="116" fill="#00D53B" rx="4"/><rect width="24" height="24" x="398" fill="#00D53B" rx="4"/><rect width="24" height="24" x="398" y="29" fill="#E3E3E3" rx="4"/><rect width="24" height="24" x="398" y="58" fill="#027C24" rx="4"/><rect width="24" height="24" x="398" y="87" fill="#8CFFAC" rx="4"/><rect width="24" height="24" x="398" y="116" fill="#00D53B" rx="4"/><rect width="24" height="24" x="431" fill="#00D53B" rx="4"/><rect width="24" height="24" x="431" y="29" fill="#53FF83" rx="4"/><rect width="24" height="24" x="431" y="58" fill="#00D53B" rx="4"/><rect width="24" height="24" x="431" y="87" fill="#00D53B" rx="4"/><rect width="24" height="24" x="431" y="116" fill="#6AE28B" rx="4"/><rect width="24" height="24" x="464" fill="#00A62E" rx="4"/><rect width="24" height="24" x="464" y="29" fill="#00D53B" rx="4"/><rect width="24" height="24" x="464" y="58" fill="#00D53B" rx="4"/><rect width="24" height="24" x="464" y="87" fill="#00D53B" rx="4"/><rect width="24" height="24" x="464" y="116" fill="#00D53B" rx="4"/><rect width="24" height="24" x="497" fill="#094B1B" rx="4"/><rect width="24" height="24" x="497" y="29" fill="#00D53B" rx="4"/><rect width="24" height="24" x="497" y="58" fill="#00D53B" rx="4"/><rect width="24" height="24" x="497" y="87" fill="#00D53B" rx="4"/><rect width="24" height="24" x="497" y="116" fill="#00D53B" rx="4"/><rect width="24" height="24" x="266" y="145" fill="#00D53B" rx="4"/><rect width="24" height="24" x="266" y="174" fill="#00D53B" fill-opacity=".4" rx="4"/><rect width="24" height="24" x="266" y="203" fill="#00D53B" rx="4"/><rect width="24" height="24" x="299" y="145" fill="#00D53B" rx="4"/><rect width="24" height="24" x="299" y="174" fill="#00D53B" rx="4"/><rect width="24" height="24" x="299" y="203" fill="#00D53B" fill-opacity=".07" rx="4"/><rect width="24" height="24" x="332" y="145" fill="#00D53B" rx="4"/><rect width="24" height="24" x="332" y="174" fill="#00D53B" fill-opacity=".54" rx="4"/><rect width="24" height="24" x="332" y="203" fill="#00D53B" rx="4"/><rect width="24" height="24" x="365" y="145" fill="#00D53B" fill-opacity=".23" rx="4"/><rect width="24" height="24" x="365" y="174" fill="#00D53B" rx="4"/><rect width="24" height="24" x="365" y="203" fill="#00D53B" rx="4"/><rect width="24" height="24" x="398" y="145" fill="#00D53B" rx="4"/><rect width="24" height="24" x="398" y="174" fill="#00D53B" rx="4"/><rect width="24" height="24" x="398" y="203" fill="#E3E3E3" rx="4"/><rect width="24" height="24" x="431" y="145" fill="#8AFFAB" rx="4"/><rect width="24" height="24" x="431" y="174" fill="#00D53B" rx="4"/><rect width="24" height="24" x="431" y="203" fill="#53FF83" rx="4"/></svg>