<svg width="521" height="227" viewBox="0 0 521 227" fill="none" xmlns="http://www.w3.org/2000/svg">
<rect width="24" height="24" rx="4" fill="#00D53B" fill-opacity="0.4"/>
<rect y="29" width="24" height="24" rx="4" fill="#00D53B"/>
<rect y="58" width="24" height="24" rx="4" fill="#00D53B"/>
<rect y="87" width="24" height="24" rx="4" fill="#00D53B"/>
<rect y="116" width="24" height="24" rx="4" fill="#00D53B"/>
<rect x="33" width="24" height="24" rx="4" fill="#00D53B"/>
<rect x="33" y="29" width="24" height="24" rx="4" fill="#00D53B" fill-opacity="0.07"/>
<rect x="33" y="58" width="24" height="24" rx="4" fill="#00D53B"/>
<rect x="33" y="87" width="24" height="24" rx="4" fill="#089B31"/>
<rect x="33" y="116" width="24" height="24" rx="4" fill="#92F3AD"/>
<rect x="66" width="24" height="24" rx="4" fill="#00D53B" fill-opacity="0.54"/>
<rect x="66" y="29" width="24" height="24" rx="4" fill="#00D53B"/>
<rect x="66" y="58" width="24" height="24" rx="4" fill="#00D53B"/>
<rect x="66" y="87" width="24" height="24" rx="4" fill="#99FFB6"/>
<rect x="66" y="116" width="24" height="24" rx="4" fill="#00D53B"/>
<rect x="99" width="24" height="24" rx="4" fill="#00D53B"/>
<rect x="99" y="29" width="24" height="24" rx="4" fill="#00D53B"/>
<rect x="99" y="58" width="24" height="24" rx="4" fill="#00D53B"/>
<rect x="99" y="87" width="24" height="24" rx="4" fill="#00D53B"/>
<rect x="99" y="116" width="24" height="24" rx="4" fill="#00D53B"/>
<rect x="132" width="24" height="24" rx="4" fill="#00D53B"/>
<rect x="132" y="29" width="24" height="24" rx="4" fill="#E3E3E3"/>
<rect x="132" y="58" width="24" height="24" rx="4" fill="#027C24"/>
<rect x="132" y="87" width="24" height="24" rx="4" fill="#8CFFAC"/>
<rect x="132" y="116" width="24" height="24" rx="4" fill="#00D53B"/>
<rect x="165" width="24" height="24" rx="4" fill="#00D53B"/>
<rect x="165" y="29" width="24" height="24" rx="4" fill="#53FF83"/>
<rect x="165" y="58" width="24" height="24" rx="4" fill="#00D53B"/>
<rect x="165" y="87" width="24" height="24" rx="4" fill="#00D53B"/>
<rect x="165" y="116" width="24" height="24" rx="4" fill="#6AE28B"/>
<rect x="198" width="24" height="24" rx="4" fill="#00A62E"/>
<rect x="198" y="29" width="24" height="24" rx="4" fill="#00D53B"/>
<rect x="198" y="58" width="24" height="24" rx="4" fill="#00D53B"/>
<rect x="198" y="87" width="24" height="24" rx="4" fill="#00D53B"/>
<rect x="198" y="116" width="24" height="24" rx="4" fill="#00D53B"/>
<rect x="231" width="24" height="24" rx="4" fill="#094B1B"/>
<rect x="231" y="29" width="24" height="24" rx="4" fill="#00D53B"/>
<rect x="231" y="58" width="24" height="24" rx="4" fill="#00D53B"/>
<rect x="231" y="87" width="24" height="24" rx="4" fill="#00D53B"/>
<rect x="231" y="116" width="24" height="24" rx="4" fill="#00D53B"/>
<rect x="66" y="145" width="24" height="24" rx="4" fill="#00D53B"/>
<rect x="66" y="174" width="24" height="24" rx="4" fill="#00D53B" fill-opacity="0.4"/>
<rect x="66" y="203" width="24" height="24" rx="4" fill="#00D53B"/>
<rect x="99" y="145" width="24" height="24" rx="4" fill="#00D53B"/>
<rect x="99" y="174" width="24" height="24" rx="4" fill="#00D53B"/>
<rect x="99" y="203" width="24" height="24" rx="4" fill="#00D53B" fill-opacity="0.07"/>
<rect x="132" y="145" width="24" height="24" rx="4" fill="#00D53B"/>
<rect x="132" y="174" width="24" height="24" rx="4" fill="#00D53B" fill-opacity="0.54"/>
<rect x="132" y="203" width="24" height="24" rx="4" fill="#00D53B"/>
<rect x="165" y="145" width="24" height="24" rx="4" fill="#00D53B" fill-opacity="0.23"/>
<rect x="165" y="174" width="24" height="24" rx="4" fill="#00D53B"/>
<rect x="165" y="203" width="24" height="24" rx="4" fill="#00D53B"/>
<rect x="198" y="145" width="24" height="24" rx="4" fill="#00D53B"/>
<rect x="198" y="174" width="24" height="24" rx="4" fill="#00D53B"/>
<rect x="198" y="203" width="24" height="24" rx="4" fill="#E3E3E3"/>
<rect x="231" y="145" width="24" height="24" rx="4" fill="#8AFFAB"/>
<rect x="231" y="174" width="24" height="24" rx="4" fill="#00D53B"/>
<rect x="231" y="203" width="24" height="24" rx="4" fill="#53FF83"/>
<rect x="266" width="24" height="24" rx="4" fill="#00D53B" fill-opacity="0.4"/>
<rect x="266" y="29" width="24" height="24" rx="4" fill="#00D53B"/>
<rect x="266" y="58" width="24" height="24" rx="4" fill="#00D53B"/>
<rect x="266" y="87" width="24" height="24" rx="4" fill="#00D53B"/>
<rect x="266" y="116" width="24" height="24" rx="4" fill="#00D53B"/>
<rect x="299" width="24" height="24" rx="4" fill="#00D53B"/>
<rect x="299" y="29" width="24" height="24" rx="4" fill="#00D53B" fill-opacity="0.07"/>
<rect x="299" y="58" width="24" height="24" rx="4" fill="#00D53B"/>
<rect x="299" y="87" width="24" height="24" rx="4" fill="#089B31"/>
<rect x="299" y="116" width="24" height="24" rx="4" fill="#92F3AD"/>
<rect x="332" width="24" height="24" rx="4" fill="#00D53B" fill-opacity="0.54"/>
<rect x="332" y="29" width="24" height="24" rx="4" fill="#00D53B"/>
<rect x="332" y="58" width="24" height="24" rx="4" fill="#00D53B"/>
<rect x="332" y="87" width="24" height="24" rx="4" fill="#99FFB6"/>
<rect x="332" y="116" width="24" height="24" rx="4" fill="#00D53B"/>
<rect x="365" width="24" height="24" rx="4" fill="#00D53B"/>
<rect x="365" y="29" width="24" height="24" rx="4" fill="#00D53B"/>
<rect x="365" y="58" width="24" height="24" rx="4" fill="#00D53B"/>
<rect x="365" y="87" width="24" height="24" rx="4" fill="#00D53B"/>
<rect x="365" y="116" width="24" height="24" rx="4" fill="#00D53B"/>
<rect x="398" width="24" height="24" rx="4" fill="#00D53B"/>
<rect x="398" y="29" width="24" height="24" rx="4" fill="#E3E3E3"/>
<rect x="398" y="58" width="24" height="24" rx="4" fill="#027C24"/>
<rect x="398" y="87" width="24" height="24" rx="4" fill="#8CFFAC"/>
<rect x="398" y="116" width="24" height="24" rx="4" fill="#00D53B"/>
<rect x="431" width="24" height="24" rx="4" fill="#00D53B"/>
<rect x="431" y="29" width="24" height="24" rx="4" fill="#53FF83"/>
<rect x="431" y="58" width="24" height="24" rx="4" fill="#00D53B"/>
<rect x="431" y="87" width="24" height="24" rx="4" fill="#00D53B"/>
<rect x="431" y="116" width="24" height="24" rx="4" fill="#6AE28B"/>
<rect x="464" width="24" height="24" rx="4" fill="#00A62E"/>
<rect x="464" y="29" width="24" height="24" rx="4" fill="#00D53B"/>
<rect x="464" y="58" width="24" height="24" rx="4" fill="#00D53B"/>
<rect x="464" y="87" width="24" height="24" rx="4" fill="#00D53B"/>
<rect x="464" y="116" width="24" height="24" rx="4" fill="#00D53B"/>
<rect x="497" width="24" height="24" rx="4" fill="#094B1B"/>
<rect x="497" y="29" width="24" height="24" rx="4" fill="#00D53B"/>
<rect x="497" y="58" width="24" height="24" rx="4" fill="#00D53B"/>
<rect x="497" y="87" width="24" height="24" rx="4" fill="#00D53B"/>
<rect x="497" y="116" width="24" height="24" rx="4" fill="#00D53B"/>
<rect x="266" y="145" width="24" height="24" rx="4" fill="#00D53B"/>
<rect x="266" y="174" width="24" height="24" rx="4" fill="#00D53B" fill-opacity="0.4"/>
<rect x="266" y="203" width="24" height="24" rx="4" fill="#00D53B"/>
<rect x="299" y="145" width="24" height="24" rx="4" fill="#00D53B"/>
<rect x="299" y="174" width="24" height="24" rx="4" fill="#00D53B"/>
<rect x="299" y="203" width="24" height="24" rx="4" fill="#00D53B" fill-opacity="0.07"/>
<rect x="332" y="145" width="24" height="24" rx="4" fill="#00D53B"/>
<rect x="332" y="174" width="24" height="24" rx="4" fill="#00D53B" fill-opacity="0.54"/>
<rect x="332" y="203" width="24" height="24" rx="4" fill="#00D53B"/>
<rect x="365" y="145" width="24" height="24" rx="4" fill="#00D53B" fill-opacity="0.23"/>
<rect x="365" y="174" width="24" height="24" rx="4" fill="#00D53B"/>
<rect x="365" y="203" width="24" height="24" rx="4" fill="#00D53B"/>
<rect x="398" y="145" width="24" height="24" rx="4" fill="#00D53B"/>
<rect x="398" y="174" width="24" height="24" rx="4" fill="#00D53B"/>
<rect x="398" y="203" width="24" height="24" rx="4" fill="#E3E3E3"/>
<rect x="431" y="145" width="24" height="24" rx="4" fill="#8AFFAB"/>
<rect x="431" y="174" width="24" height="24" rx="4" fill="#00D53B"/>
<rect x="431" y="203" width="24" height="24" rx="4" fill="#53FF83"/>
</svg>
